<?xml version="1.0" encoding="UTF-8"?>
<svg width="44px" height="44px" viewBox="0 0 44 44" version="1.1" xmlns="http://www.w3.org/2000/svg" xmlns:xlink="http://www.w3.org/1999/xlink">
    <!-- Generator: Sketch 43.1 (39012) - http://www.bohemiancoding.com/sketch -->
    <title>关闭</title>
    <desc>Created with Sketch.</desc>
    <defs></defs>
    <g id="Page-2" stroke="none" stroke-width="1" fill="none" fill-rule="evenodd">
        <g id="空调" transform="translate(-36.000000, -19.000000)" fill-rule="nonzero" fill="#FFFFFF">
            <g id="Group-2">
                <g id="返回" transform="translate(213.000000, 149.000000) scale(-1, 1) translate(-213.000000, -149.000000) translate(37.000000, 22.000000)">
                    <g id="返回-(1)" transform="translate(176.000000, 126.523206) scale(-1, 1) translate(-176.000000, -126.523206) translate(0.000000, 0.023206)">
                        <path d="M40.5855549,16.7575092 L4.96789285,16.7575092 L19.4553704,2.42239429 C20.003723,1.87982819 19.9920059,0.989134533 19.4291989,0.432795303 C18.8664399,-0.123496449 17.9658527,-0.134657384 17.4175001,0.407908713 L0.572476002,17.0762383 C0.478882921,17.1534153 0.395374297,17.2425607 0.324014983,17.3413947 C0.13409164,17.5907833 0.0417951151,17.8908949 0.0468853743,18.1920514 C0.0407866927,18.5538096 0.174765473,18.9142855 0.450262384,19.1867559 L17.4175961,35.976004 C17.9659487,36.5186176 18.8665359,36.5074092 19.4292949,35.9511649 C19.9921019,35.3948732 20.003819,34.5041795 19.4554664,33.9615659 L4.94810813,19.6068836 L40.5855548,19.6068836 C41.3611432,19.6068836 41.9898831,18.9692355 41.9898831,18.1823152 C41.9898831,17.3953949 41.3611432,16.7575092 40.5855549,16.7575092 Z" id="Shape"></path>
                    </g>
                </g>
            </g>
        </g>
    </g>
</svg>