<?xml version="1.0" encoding="UTF-8"?>
<svg width="45px" height="44px" viewBox="0 0 45 44" version="1.1" xmlns="http://www.w3.org/2000/svg" xmlns:xlink="http://www.w3.org/1999/xlink">
    <!-- Generator: Sketch 43.1 (39012) - http://www.bohemiancoding.com/sketch -->
    <title>关闭</title>
    <desc>Created with Sketch.</desc>
    <defs></defs>
    <g id="Page-2" stroke="none" stroke-width="1" fill="none" fill-rule="evenodd">
        <g id="1" transform="translate(-1192.000000, -18.000000)" fill="#FFFFFF">
            <g id="Group-2">
                <g id="关闭" transform="translate(1192.379396, 17.075269)">
                    <path d="M25.4465925,22.0608208 L40.6013168,6.90330243 C41.2598627,6.24418122 41.2598627,5.17605985 40.6013168,4.51693863 C39.9423171,3.85872529 38.8743926,3.85872529 38.2153929,4.51693863 L23.0606686,19.674457 L7.90594426,4.51648469 C7.24694454,3.85827135 6.17902006,3.85827135 5.52002033,4.51648469 C4.86147447,5.17560591 4.86147447,6.24372727 5.52002033,6.90284849 L20.6747447,22.0608208 L5.52002033,37.2183391 C4.86147447,37.8774603 4.86147447,38.9455817 5.52002033,39.6047029 C5.8495202,39.9338096 6.28159164,40.0994978 6.71275537,40.0994978 C7.1439191,40.0994978 7.5764444,39.9338096 7.9054904,39.6047029 L23.0602147,24.4471846 L38.2149391,39.6047029 C38.5444389,39.9338096 38.9765104,40.0994978 39.4076741,40.0994978 C39.8388378,40.0994978 40.2713631,39.9338096 40.6004091,39.6047029 C41.258955,38.9455817 41.258955,37.8774603 40.6004091,37.2183391 L25.4465925,22.0608208 L25.4465925,22.0608208 Z" id="Shape"></path>
                </g>
            </g>
        </g>
    </g>
</svg>