<?xml version="1.0" encoding="UTF-8"?>
<svg width="44px" height="44px" viewBox="0 0 44 44" version="1.1" xmlns="http://www.w3.org/2000/svg" xmlns:xlink="http://www.w3.org/1999/xlink">
    <!-- Generator: Sketch 43.1 (39012) - http://www.bohemiancoding.com/sketch -->
    <title>汉堡菜单</title>
    <desc>Created with Sketch.</desc>
    <defs></defs>
    <g id="Page-2" stroke="none" stroke-width="1" fill="none" fill-rule="evenodd">
        <g id="1" transform="translate(-1121.000000, -18.000000)" fill="#FFFFFF">
            <g id="Group-2">
                <g id="汉堡" transform="translate(1120.361082, 17.086022)">
                    <g id="Group" transform="translate(5.000000, 7.000000)">
                        <path d="M36.0857307,1.66625337 C36.0857307,2.57081274 35.3574282,3.3072952 34.4629155,3.3072952 L1.72556337,3.3072952 C0.82802866,3.3072952 0.102748082,2.57386868 0.102748082,1.66625337 L0.102748082,1.66625337 C0.102748082,0.758638054 0.82802866,0.0252115365 1.72556337,0.0252115365 L34.4629155,0.0252115365 C35.3574282,0.0252115365 36.0857307,0.758638054 36.0857307,1.66625337 L36.0857307,1.66625337 L36.0857307,1.66625337 Z" id="Shape"></path>
                        <path d="M36.0857307,10.607945 C36.0857307,11.5125044 35.3574282,12.2489868 34.4629155,12.2489868 L1.72556337,12.2489868 C0.82802866,12.2489868 0.102748082,11.5155603 0.102748082,10.607945 L0.102748082,10.607945 C0.102748082,9.70032968 0.82802866,8.96690316 1.72556337,8.96690316 L34.4629155,8.96690316 C35.3574282,8.96690316 36.0857307,9.70032968 36.0857307,10.607945 L36.0857307,10.607945 L36.0857307,10.607945 Z" id="Shape"></path>
                        <path d="M35.9829827,19.7727205 C35.9829827,20.6803358 35.2546801,21.4137623 34.3601674,21.4137623 L1.62281529,21.4137623 C0.725280578,21.4168183 0,20.6803358 0,19.7727205 L0,19.7727205 C0,18.8651052 0.725280578,18.1316787 1.62281529,18.1316787 L34.3601674,18.1316787 C35.2546801,18.1316787 35.9829827,18.8681611 35.9829827,19.7727205 L35.9829827,19.7727205 L35.9829827,19.7727205 Z" id="Shape"></path>
                        <path d="M35.9829827,29.0138946 C35.9829827,29.9215099 35.2546801,30.6549365 34.3601674,30.6549365 L1.62281529,30.6549365 C0.725280578,30.6549365 0,29.9215099 0,29.0138946 L0,29.0138946 C0,28.1062793 0.725280578,27.3728528 1.62281529,27.3728528 L34.3601674,27.3728528 C35.2546801,27.3728528 35.9829827,28.1062793 35.9829827,29.0138946 L35.9829827,29.0138946 L35.9829827,29.0138946 Z" id="Shape"></path>
                    </g>
                </g>
            </g>
        </g>
    </g>
</svg>